<svg xmlns="http://www.w3.org/2000/svg" fill="none" viewBox="0 0 178 28" height="28" width="178">
<g clip-path="url(#clip0_1524_7080)">
<path fill="#0F172B" d="M39.2576 4.8142H46.8778C50.5372 4.83334 52.8068 5.48895 54.0946 6.48434C56.0434 7.97742 56.923 10.241 56.9182 12.7534C56.9182 14.5192 56.4127 15.8831 55.7421 16.9072C54.9499 18.1131 53.8225 18.8884 52.7096 19.3526L57.5208 27.799L51.3731 27.7846L45.3178 16.6966H46.2946C47.806 16.7014 49.0939 16.5818 49.886 16.0936C50.6053 15.6247 51.2176 14.5383 51.2225 13.2702C51.2225 12.0547 50.6199 11.088 49.8374 10.6047C49.1668 10.1883 48.2288 9.96819 47.4075 9.96819H45.2012L45.172 27.7655H39.2188L39.2576 4.80463V4.8142Z"></path>
<path fill="#00B8DB" d="M81.227 7.50857C80.4348 8.92029 79.113 10.3224 76.7365 10.9159C77.3246 12.1027 77.7085 14.3279 77.6696 15.5434C77.5433 18.7928 74.9238 22.6212 70.6035 22.6116C66.5067 22.6021 63.6442 19.9413 63.4255 16.0124C63.3235 15.0314 63.2457 12.8444 63.4353 11.849C61.7003 12.8444 59.5814 11.9974 58.6143 10.3751C58.1429 11.0116 57.8319 13.8207 57.827 15.1893L57.8027 15.3185C57.793 21.7311 62.925 27.8805 70.4431 27.8996C77.8689 27.9092 83.2584 21.9704 83.2681 15.0027C83.2778 12.3228 82.6169 9.61419 81.227 7.50378"></path>
<path fill="#0F172B" d="M80.7169 1.26347C79.4873 0.430796 77.3442 1.50753 75.9445 3.67058C75.9105 3.71365 75.8862 3.75194 75.8571 3.79979C75.8328 3.83808 75.8036 3.87636 75.7744 3.92422C74.4137 6.01548 74.2825 8.36517 75.4731 9.16913C75.9543 9.48976 76.586 9.5089 77.247 9.28398C78.3161 9.00164 79.5068 8.06846 80.4058 6.68545C81.8103 4.52719 81.9513 2.09615 80.712 1.26826"></path>
<path fill="#0F172B" d="M74.8457 3.95772C75.2976 2.07223 74.6853 0.311159 73.4801 0.0383854C72.2603 -0.239174 70.9092 1.07205 70.4573 2.95754C70.3066 3.5988 70.2726 4.21613 70.3455 4.77604C70.433 5.92934 70.9773 6.83381 71.7986 7.02044C72.7025 7.22622 73.6745 6.53232 74.2771 5.37423C74.5249 4.96267 74.7242 4.48412 74.8457 3.95772Z"></path>
<path fill="#0F172B" d="M69.5733 3.51745C69.3011 1.90474 68.2514 0.732286 67.1871 0.885423C66.0888 1.02899 65.3938 2.50292 65.6271 4.16828C65.7583 5.06317 66.1277 5.82885 66.6136 6.32176C67.0413 6.83859 67.5856 7.12094 68.125 7.04437C69.1796 6.89602 69.86 5.47951 69.6316 3.86679C69.617 3.74237 69.5927 3.63709 69.5733 3.51267"></path>
<path fill="#0F172B" d="M64.9028 4.76646C64.1106 3.84764 62.9977 3.4648 62.259 3.93857C61.4329 4.47455 61.3989 5.84799 62.1813 7.03001C62.6138 7.66648 63.1873 8.10675 63.7559 8.29338C64.305 8.5518 64.8688 8.57573 65.2916 8.30774C66.0934 7.80047 66.1274 6.45575 65.3742 5.31679C65.2332 5.11102 65.0777 4.92917 64.9028 4.76646Z"></path>
<path fill="#0F172B" d="M62.4878 8.18811C62.2157 7.98233 61.9192 7.84355 61.6276 7.75741C60.7772 7.39371 59.8975 7.48464 59.4747 8.06368C58.9402 8.77194 59.3144 9.93003 60.2912 10.6479C60.8404 11.0498 61.4575 11.2173 61.9824 11.179C62.5218 11.2173 63.0078 11.0594 63.2897 10.6814C63.8 9.99703 63.4403 8.87722 62.4927 8.18811"></path>
<path fill="#0F172B" d="M24.124 27.7368L37.3232 27.7607L37.3378 22.6115L30.087 22.5971L30.0919 18.6587L37.1289 18.673L37.1337 13.5238L30.1016 13.5095L30.1113 9.94426L37.3573 9.95862L37.3718 4.80463L24.1678 4.7807L24.124 27.7368Z"></path>
<path fill="#0F172B" d="M8.17905 15.4859L0 27.6937L6.64821 27.7129L11.4497 19.5871L16.4699 27.7272L23.2153 27.7368L15.1772 15.6247L22.3162 4.78072L15.6 4.76636L11.717 11.3129L7.72223 4.75201L0.9914 4.74722L8.17905 15.4859Z"></path>
<path fill="#808184" d="M87.8021 21.061C88.1763 24.8703 91.0095 25.6886 92.4626 25.6934C94.8876 25.6934 97.128 23.8653 97.1329 21.3242C97.1377 18.094 94.3336 17.381 91.6316 16.51C89.7411 15.9453 85.6783 14.7585 85.6832 10.4133C85.6249 6.35037 89.0656 4.10118 92.6278 4.10596C95.5243 4.10596 98.8581 5.69475 99.2274 10.04H96.642C96.365 8.54692 95.6069 6.27858 92.5258 6.2738C90.1882 6.2738 88.2686 7.81473 88.2589 10.2075C88.2249 12.9974 90.5235 13.6865 94.0469 14.8734C96.2581 15.7108 99.7134 16.9311 99.7086 21.1472C99.7086 24.8894 96.8316 27.8708 92.482 27.8612C88.5699 27.8517 85.3381 25.4302 85.1826 21.0562L87.7972 21.0658L87.8021 21.061Z"></path>
<path fill="#808184" d="M101.73 27.8756L104.311 27.8804L104.326 17.4001L115.576 17.4145L115.561 27.8995L118.176 27.9091L118.22 4.94824H115.6L115.586 15.1509L104.335 15.1366L104.355 4.9291L101.774 4.91953L101.73 27.8756Z"></path>
<path fill="#808184" d="M122.826 16.0315C122.817 21.4295 126.933 25.6551 132.386 25.6599C137.897 25.6695 141.935 21.3099 141.95 16.0602C141.96 10.8153 137.931 6.43653 132.386 6.43174C126.914 6.42695 122.831 10.6908 122.826 15.998V16.0315ZM120.212 16.0937C120.222 9.0207 125.81 4.16341 132.395 4.17777C139.228 4.18734 144.545 9.33654 144.535 16.0745C144.521 22.803 139.219 27.9426 132.352 27.933C125.451 27.9187 120.202 22.669 120.217 16.1224V16.0937H120.212Z"></path>
<path fill="#808184" d="M146.552 27.9618L159.474 27.9809L159.479 25.7078L149.142 25.6935L149.152 17.5103L159.425 17.5246L159.43 15.2611L149.161 15.2467L149.171 7.27406L159.508 7.2932L159.513 5.02487L146.595 5.00095L146.552 27.9618Z"></path>
<path fill="#808184" d="M163.547 21.1949C163.912 25.009 166.755 25.8225 168.203 25.8225C170.628 25.8273 172.873 23.9992 172.873 21.4581C172.873 18.2231 170.069 17.5101 167.367 16.6391C165.481 16.0792 161.414 14.8924 161.419 10.5472C161.365 6.48427 164.806 4.2303 168.358 4.23508C171.26 4.23508 174.598 5.81909 174.973 10.1643H172.382C172.105 8.67603 171.347 6.41249 168.261 6.40292C165.929 6.40292 164.009 7.93907 164.004 10.3366C163.965 13.1266 166.269 13.8157 169.792 15.0025C171.998 15.8399 175.459 17.0602 175.449 21.2763C175.449 25.0185 172.572 27.9951 168.222 27.9951C164.32 27.9856 161.078 25.5545 160.933 21.1853H163.542L163.547 21.1949Z"></path>
<path fill="#808184" d="M176.299 3.86191V4.4266H176.673C176.776 4.42182 177.096 4.4266 177.096 4.13947C177.096 3.8667 176.819 3.86191 176.712 3.86191H176.299ZM176.746 3.72792C176.907 3.72792 177.281 3.7662 177.276 4.12512C177.276 4.27825 177.208 4.40746 177.004 4.4936C177.174 4.54146 177.237 4.65631 177.247 4.83337C177.266 5.12529 177.261 5.14922 177.296 5.20664H177.111C177.091 5.16357 177.077 5.06786 177.072 4.86687C177.053 4.70416 177.033 4.57017 176.673 4.56538H176.299V5.20664H176.11V3.71835L176.746 3.72313V3.72792ZM176.678 3.31158C176.017 3.30201 175.527 3.8332 175.527 4.46489C175.517 5.11093 176.022 5.62777 176.678 5.62777C177.334 5.62777 177.84 5.1205 177.845 4.47446C177.845 3.84756 177.354 3.31637 176.698 3.31637H176.683L176.678 3.31158ZM176.693 3.15844C177.436 3.15844 177.995 3.75185 178 4.46489C178.005 5.19707 177.412 5.76655 176.678 5.76655C175.944 5.76655 175.356 5.19707 175.356 4.46489C175.356 3.76142 175.925 3.15366 176.693 3.15844Z"></path>
</g>
<defs>
<clipPath id="clip0_1524_7080">
<rect fill="white" height="28" width="178"></rect>
</clipPath>
</defs>
</svg>
